<svg fill="#DE1A1A" xmlns="http://www.w3.org/2000/svg" viewBox="0 0 646.67 134.73">
  <path d="m214.52,108.21c-3.42-3.42-8.98-3.42-12.4,0-11.77,11.77-30.93,11.77-42.71,0-3.57-3.57-6.14-7.88-7.57-12.58h61.06c4.48,0,8.69-1.98,11.55-5.44,2.86-3.47,4.02-8,3.16-12.43-2.96-15.32-13.12-28.04-27.88-34.89-11.93-5.54-25.66-5.58-37.65-.12-17.21,7.84-28.04,23.4-28.99,41.64-.02.45-.02.92.02,1.37-.05.36-.07.72-.07,1.1,0,12.75,4.97,24.74,13.98,33.75,18.61,18.61,48.89,18.62,67.5,0,3.42-3.42,3.42-8.98,0-12.4Zm-45.16-49.51c7.33-3.33,15.72-3.31,23.01.07,3.8,1.77,7.09,4.05,9.81,6.77,3.52,3.52,6.07,7.77,7.5,12.55h-57.81c2.55-8.43,8.74-15.41,17.49-19.39Z"/>
  <path d="m334.97,86.85v38.96c0,4.84-3.93,8.77-8.77,8.77s-8.77-3.93-8.77-8.77v-38.96c0-16.66-13.55-30.2-30.19-30.2s-30.2,13.55-30.2,30.2v38.96c0,4.84-3.92,8.77-8.77,8.77s-8.77-3.93-8.77-8.77v-38.96c0-26.32,21.41-47.74,47.74-47.74s47.72,21.41,47.72,47.74Z"/>
  <path d="m433.35.15c-4.85,0-8.77,3.93-8.77,8.77v40.98c-8.24-6.74-18.76-10.79-30.2-10.79-26.31,0-47.72,21.41-47.72,47.74s21.41,47.72,47.72,47.72,47.74-21.41,47.74-47.72V8.92c0-4.84-3.93-8.77-8.77-8.77Zm-38.97,116.89c-16.64,0-30.19-13.55-30.19-30.19s13.55-30.2,30.19-30.2,30.2,13.55,30.2,30.2-13.55,30.19-30.2,30.19Z"/>
  <path d="m471.34,86.85v38.96c0,4.84-3.93,8.77-8.77,8.77s-8.77-3.93-8.77-8.77v-38.96c0-4.85,3.92-8.77,8.77-8.77s8.77,3.92,8.77,8.77Z"/>
  <path d="m546.69,119.61c3.42,3.42,3.42,8.97,0,12.39-1.72,1.72-3.96,2.57-6.21,2.57s-4.49-.85-6.19-2.57l-24-24v17.8c0,4.84-3.93,8.77-8.77,8.77s-8.77-3.93-8.77-8.77V47.88c0-5.9-4.8-10.71-10.72-10.71s-10.71,4.8-10.71,10.71v9.75c0,4.84-3.93,8.77-8.77,8.77s-8.77-3.93-8.77-8.77v-9.75c0-15.57,12.67-28.24,28.24-28.24s28.25,12.67,28.25,28.24v17.8l24-24c3.42-3.42,8.98-3.42,12.4,0,3.42,3.42,3.42,8.98,0,12.4l-32.76,32.76,32.76,32.76Z"/>
  <path d="m598.93,39.11c-26.31,0-47.72,21.41-47.72,47.74s21.41,47.72,47.72,47.72c11.44,0,21.96-4.04,30.2-10.79v2.02c0,4.84,3.92,8.77,8.77,8.77s8.77-3.93,8.77-8.77v-38.96c0-26.32-21.41-47.74-47.74-47.74Zm0,77.93c-16.64,0-30.19-13.55-30.19-30.19s13.55-30.2,30.19-30.2,30.2,13.55,30.2,30.2-13.55,30.19-30.2,30.19Z"/>
  <path d="m144.97,12.7l-56.09,112.19c-3.04,6.07-9.14,9.84-15.93,9.84s-12.89-3.78-15.92-9.84L.93,12.7C-1.24,8.36.52,3.1,4.85.93c4.34-2.16,9.6-.41,11.76,3.93l56.09,112.19c.06.12.08.15.25.15.18,0,.19-.04.25-.15L129.28,4.85c2.17-4.34,7.43-6.09,11.77-3.93,4.32,2.17,6.08,7.43,3.92,11.77Z"/>
</svg>
